# Blender v2.92.0 OBJ File: 'stabley.blend'
# www.blender.org
mtllib stabley.mtl
o Cylinder
v -0.000000 -0.000156 -0.049767
v -0.000000 0.129275 -0.063454
v 0.035191 -0.000156 -0.035191
v 0.044869 0.129275 -0.044869
v 0.049767 -0.000156 0.000000
v 0.063454 0.129275 0.000000
v 0.035191 -0.000156 0.035191
v 0.044869 0.129275 0.044869
v -0.000000 -0.000156 0.049767
v -0.000000 0.129275 0.063454
v -0.035191 -0.000156 0.035191
v -0.044869 0.129275 0.044869
v -0.049767 -0.000156 -0.000000
v -0.063454 0.129275 -0.000000
v -0.035191 -0.000156 -0.035191
v -0.044869 0.129275 -0.044869
v 0.029657 0.010472 -0.029657
v -0.000000 0.010472 -0.041942
v 0.041942 0.010472 0.000000
v 0.029657 0.010472 0.029657
v -0.000000 0.010472 0.041942
v -0.029657 0.010472 0.029657
v -0.041942 0.010472 -0.000000
v -0.029657 0.010472 -0.029657
v -0.000000 0.120262 -0.065458
v 0.046286 0.120262 -0.046286
v 0.065458 0.120262 0.000000
v 0.046286 0.120262 0.046286
v -0.000000 0.120262 0.065458
v -0.046286 0.120262 0.046286
v -0.065458 0.120262 -0.000000
v -0.046286 0.120262 -0.046286
v 0.051487 0.128469 -0.051487
v -0.000000 0.128469 -0.072814
v -0.000000 0.119457 -0.071640
v 0.072814 0.128469 0.000000
v 0.051487 0.128469 0.051487
v -0.000000 0.128469 0.072814
v -0.051487 0.128469 0.051487
v -0.072814 0.128469 -0.000000
v -0.051487 0.128469 -0.051487
v 0.050657 0.119457 -0.050657
v 0.071640 0.119457 0.000000
v 0.050657 0.119457 0.050657
v -0.000000 0.119457 0.071640
v -0.050657 0.119457 0.050657
v -0.071640 0.119457 -0.000000
v -0.050657 0.119457 -0.050657
vt 0.851562 0.046875
vt 0.921875 0.078125
vt 0.859375 0.078125
vt 0.312500 0.781250
vt 0.187500 0.812500
vt 0.195312 0.781250
vt 0.851562 0.390625
vt 0.820312 0.281250
vt 0.859375 0.359375
vt 0.976562 0.296875
vt 0.921875 0.359375
vt 0.960938 0.281250
vt 0.093750 0.640625
vt 0.109375 0.625000
vt 0.382812 1.000000
vt 0.445312 0.640625
vt 0.445312 1.000000
vt 0.093750 0.375000
vt 0.109375 0.390625
vt 0.976562 0.140625
vt 0.960938 0.156250
vt 0.119048 0.880952
vt 0.280952 0.880952
vt 0.280952 0.719048
vt 0.929688 0.390625
vt 0.820312 0.156250
vt 0.304688 0.468750
vt 0.328125 0.359375
vt 0.382812 0.406250
vt 0.257812 1.000000
vt 0.320312 0.640625
vt 0.320312 1.000000
vt 0.117188 1.000000
vt 0.195312 0.640625
vt 0.195312 1.000000
vt 0.054688 1.000000
vt 0.000000 0.640625
vt 0.054688 0.640625
vt 0.500000 0.640625
vt 0.500000 1.000000
vt 0.382812 0.640625
vt 0.257812 0.640625
vt 0.117188 0.640625
vt 0.500000 0.937500
vt 0.453125 0.968750
vt 0.453125 0.937500
vt 0.367188 0.968750
vt 0.367188 0.937500
vt 0.312500 0.968750
vt 0.312500 0.937500
vt 0.265625 0.937500
vt 0.265625 0.968750
vt 0.187500 0.937500
vt 0.187500 0.968750
vt 0.125000 0.937500
vt 0.125000 0.968750
vt 0.062500 0.937500
vt 0.062500 0.968750
vt 0.000000 0.937500
vt 0.390625 0.609375
vt 0.320312 0.812500
vt 0.390625 0.390625
vt 0.406250 0.625000
vt 0.320312 0.187500
vt 0.406250 0.375000
vt 0.312500 0.218750
vt 0.187500 0.187500
vt 0.109375 0.375000
vt 0.195312 0.218750
vt 0.804688 0.140625
vt 0.929688 0.046875
vt 0.804688 0.296875
vt 0.200000 0.914286
vt 0.314286 0.800000
vt 0.200000 0.685714
vt 0.119048 0.719048
vt 0.085714 0.800000
vt 0.382812 0.468750
vt 0.359375 0.515625
vt 0.328125 0.515625
vt 0.304688 0.406250
vt 0.359375 0.359375
vt 0.000000 1.000000
vt 0.500000 0.968750
vt 0.000000 0.968750
vt 0.093750 0.359375
vt 0.123810 0.680952
vt 0.000000 1.000000
vt 0.000000 0.680952
vt 0.252381 0.680952
vt 0.123810 1.000000
vt 0.376190 1.000000
vt 0.376190 0.680952
vt 0.500000 1.000000
vt 0.500000 0.680952
vt 0.623810 0.680952
vt 0.752381 1.000000
vt 0.752381 0.680952
vt 0.876190 0.680952
vt 1.000000 1.000000
vt 1.000000 0.680952
vt 0.252381 1.000000
vt 0.623810 1.000000
vt 0.876190 1.000000
vn -0.5892 0.5528 -0.5892
vn 0.4789 0.8778 0.0000
vn 0.3386 0.8778 0.3386
vn 0.3351 -0.8805 0.3351
vn 0.0000 -0.7149 0.6992
vn 0.0000 -0.8805 0.4740
vn 0.8333 0.5528 0.0000
vn -0.3386 0.8778 0.3386
vn -0.4789 0.8778 0.0000
vn 0.0000 0.5528 0.8333
vn -0.3386 0.8778 -0.3386
vn 0.0000 0.8778 -0.4789
vn -0.4944 -0.7149 0.4944
vn -0.3351 -0.8805 0.3351
vn 0.5076 0.6962 0.5076
vn -0.6992 -0.7149 0.0000
vn -0.4740 -0.8805 0.0000
vn -0.5892 0.5528 0.5892
vn 0.3386 0.8778 -0.3386
vn -0.5196 -0.6782 -0.5196
vn 0.5196 -0.6782 -0.5196
vn 0.5196 -0.6782 0.5196
vn 0.5892 0.5528 0.5892
vn 0.0000 0.8778 0.4789
vn 0.7178 0.6962 0.0000
vn 0.0000 0.6962 -0.7178
vn -0.7178 0.6962 0.0000
vn 0.5076 0.6962 -0.5076
vn -0.5076 0.6962 -0.5076
vn 0.0000 0.6962 0.7178
vn -0.5076 0.6962 0.5076
vn 0.0000 -0.7149 -0.6992
vn 0.5892 0.5528 -0.5892
vn 0.4944 -0.7149 -0.4944
vn 0.6992 -0.7149 0.0000
vn 0.4944 -0.7149 0.4944
vn -0.8333 0.5528 0.0000
vn -0.4944 -0.7149 -0.4944
vn 0.4740 -0.8805 0.0000
vn 0.3351 -0.8805 -0.3351
vn 0.0000 -0.8805 -0.4740
vn -0.3351 -0.8805 -0.3351
vn 0.0000 0.5528 -0.8333
vn 0.0000 -0.6782 -0.7348
vn 0.7348 -0.6782 0.0000
vn 0.0000 -0.6782 0.7348
vn -0.5196 -0.6782 0.5196
vn -0.7348 -0.6782 0.0000
usemtl Material.001
s 1
f 41/1/1 14/2/2 16/3/3
f 28/4/4 45/5/5 29/6/6
f 36/7/7 4/8/8 6/9/9
f 38/10/10 8/11/11 10/12/12
f 29/6/6 46/13/13 30/14/14
f 14/15/2 24/16/15 16/17/3
f 30/14/14 47/18/16 31/19/17
f 14/2/2 39/20/18 12/21/19
f 15/22/20 3/23/21 7/24/22
f 6/9/9 37/25/23 36/7/7
f 12/21/19 38/10/10 10/12/12
f 2/26/24 41/1/1 16/3/3
f 23/27/25 21/28/26 19/29/27
f 10/30/12 22/31/28 12/32/19
f 6/33/9 20/34/29 8/35/11
f 4/36/8 18/37/30 17/38/31
f 16/17/3 18/39/30 2/40/24
f 12/32/19 23/41/25 14/15/2
f 10/30/12 20/34/29 21/42/26
f 4/36/8 19/43/27 6/33/9
f 35/44/32 33/45/33 42/46/34
f 42/46/34 36/47/7 43/48/35
f 43/48/35 37/49/23 44/50/36
f 37/49/23 45/51/5 44/50/36
f 38/52/10 46/53/13 45/51/5
f 39/54/18 47/55/16 46/53/13
f 40/56/37 48/57/38 47/55/16
f 41/58/1 35/59/32 48/57/38
f 27/60/39 44/61/36 28/4/4
f 26/62/40 43/63/35 27/60/39
f 26/62/40 35/64/32 42/65/34
f 25/66/41 48/67/38 35/64/32
f 31/68/17 48/67/38 32/69/42
f 4/8/8 34/70/43 2/26/24
f 41/1/1 40/71/37 14/2/2
f 28/4/4 44/61/36 45/5/5
f 36/7/7 33/72/33 4/8/8
f 38/10/10 37/25/23 8/11/11
f 29/6/6 45/5/5 46/13/13
f 14/15/2 23/41/25 24/16/15
f 30/14/14 46/13/13 47/18/16
f 14/2/2 40/71/37 39/20/18
f 15/22/20 1/73/44 3/23/21
f 3/23/21 5/74/45 7/24/22
f 7/24/22 9/75/46 11/76/47
f 11/76/47 13/77/48 7/24/22
f 13/77/48 15/22/20 7/24/22
f 6/9/9 8/11/11 37/25/23
f 12/21/19 39/20/18 38/10/10
f 2/26/24 34/70/43 41/1/1
f 19/29/27 17/78/31 18/79/30
f 18/79/30 24/80/15 23/27/25
f 23/27/25 22/81/28 21/28/26
f 21/28/26 20/82/29 19/29/27
f 19/29/27 18/79/30 23/27/25
f 10/30/12 21/42/26 22/31/28
f 6/33/9 19/43/27 20/34/29
f 4/36/8 2/83/24 18/37/30
f 16/17/3 24/16/15 18/39/30
f 12/32/19 22/31/28 23/41/25
f 10/30/12 8/35/11 20/34/29
f 4/36/8 17/38/31 19/43/27
f 35/44/32 34/84/43 33/45/33
f 42/46/34 33/45/33 36/47/7
f 43/48/35 36/47/7 37/49/23
f 37/49/23 38/52/10 45/51/5
f 38/52/10 39/54/18 46/53/13
f 39/54/18 40/56/37 47/55/16
f 40/56/37 41/58/1 48/57/38
f 41/58/1 34/85/43 35/59/32
f 27/60/39 43/63/35 44/61/36
f 26/62/40 42/65/34 43/63/35
f 26/62/40 25/66/41 35/64/32
f 25/66/41 32/69/42 48/67/38
f 31/68/17 47/86/16 48/67/38
f 4/8/8 33/72/33 34/70/43
usemtl Material.002
f 15/87/20 25/88/41 1/89/44
f 13/90/48 32/91/42 15/87/20
f 30/92/14 13/90/48 11/93/47
f 29/94/6 11/93/47 9/95/46
f 7/96/22 29/94/6 9/95/46
f 27/97/39 7/96/22 5/98/45
f 3/99/21 27/97/39 5/98/45
f 25/100/41 3/99/21 1/101/44
f 15/87/20 32/91/42 25/88/41
f 13/90/48 31/102/17 32/91/42
f 30/92/14 31/102/17 13/90/48
f 29/94/6 30/92/14 11/93/47
f 7/96/22 28/103/4 29/94/6
f 27/97/39 28/103/4 7/96/22
f 3/99/21 26/104/40 27/97/39
f 25/100/41 26/104/40 3/99/21
o Torus.001
v 0.060154 0.026163 0.013336
v 0.060154 0.026163 -0.013336
v 0.057619 0.018421 -0.013336
v 0.057619 0.018421 0.013336
v 0.051087 0.031314 -0.050199
v 0.052816 0.035169 -0.048269
v 0.048685 0.036055 -0.046338
v 0.046955 0.032200 -0.048269
v 0.031787 0.069406 -0.074639
v 0.034258 0.071796 -0.071769
v 0.030869 0.071217 -0.068898
v 0.028398 0.068826 -0.071769
v 0.007470 0.111030 -0.081224
v 0.010859 0.111610 -0.078100
v 0.008387 0.109220 -0.074976
v 0.004998 0.108640 -0.078100
v -0.002161 0.127696 -0.071271
v 0.000656 0.127092 -0.069874
v -0.000523 0.124464 -0.068476
v -0.003340 0.125068 -0.069874
v -0.002161 0.127696 0.071271
v 0.000656 0.127092 0.069874
v -0.000523 0.124464 0.068476
v -0.003340 0.125068 0.069874
v 0.007470 0.111030 0.081224
v 0.010859 0.111610 0.078100
v 0.008387 0.109220 0.074976
v 0.004998 0.108640 0.078100
v 0.031787 0.069406 0.074639
v 0.034258 0.071796 0.071769
v 0.030869 0.071217 0.068898
v 0.028398 0.068826 0.071769
v 0.051087 0.031314 0.050199
v 0.052816 0.035169 0.048269
v 0.048685 0.036055 0.046338
v 0.046955 0.032200 0.048269
v 0.056500 0.020629 0.013336
v 0.056500 0.020629 -0.013336
v 0.057946 0.025044 -0.013336
v 0.057946 0.025044 0.013336
v 0.053531 0.026490 -0.013336
v 0.053531 0.026490 0.013336
v 0.052085 0.022075 -0.013336
v 0.052085 0.022075 0.013336
v 0.052412 0.028698 -0.013336
v 0.052412 0.028698 0.013336
v 0.049877 0.020956 -0.013336
v 0.049877 0.020956 0.013336
vt 0.257812 0.609375
vt 0.265625 0.781250
vt 0.257812 0.781250
vt 0.203125 0.781250
vt 0.195312 0.609375
vt 0.203125 0.609375
vt 0.867188 0.750000
vt 0.851562 0.687500
vt 0.867188 0.687500
vt 0.195312 0.781250
vt 0.179688 0.609375
vt 0.226562 0.375000
vt 0.234375 0.609375
vt 0.226562 0.609375
vt 0.234375 0.375000
vt 0.250000 0.609375
vt 0.257812 0.375000
vt 0.273438 0.375000
vt 0.273438 0.609375
vt 0.234375 0.156250
vt 0.250000 0.156250
vt 0.250000 0.375000
vt 0.257812 0.140625
vt 0.226562 0.140625
vt 0.250000 0.093750
vt 0.250000 0.109375
vt 0.257812 0.093750
vt 0.273438 0.140625
vt 0.210938 0.093750
vt 0.203125 0.093750
vt 0.203125 0.062500
vt 0.250000 0.062500
vt 0.226562 0.140625
vt 0.218750 0.156250
vt 0.203125 0.109375
vt 0.195312 0.140625
vt 0.187500 0.140625
vt 0.226562 0.375000
vt 0.218750 0.375000
vt 0.203125 0.156250
vt 0.195312 0.375000
vt 0.187500 0.375000
vt 0.218750 0.609375
vt 0.203125 0.375000
vt 0.226562 0.781250
vt 0.234375 0.781250
vt 0.250000 0.781250
vt 0.218750 0.781250
vt 0.898438 0.703125
vt 0.867188 0.734375
vt 0.867188 0.703125
vt 0.898438 0.703125
vt 0.867188 0.734375
vt 0.867188 0.703125
vt 0.898438 0.703125
vt 0.867188 0.734375
vt 0.867188 0.703125
vt 0.867188 0.703125
vt 0.898438 0.734375
vt 0.867188 0.734375
vt 0.226562 0.781250
vt 0.226562 0.609375
vt 0.851562 0.750000
vt 0.867188 0.687500
vt 0.867188 0.750000
vt 0.851562 0.750000
vt 0.867188 0.687500
vt 0.867188 0.750000
vt 0.851562 0.750000
vt 0.867188 0.687500
vt 0.867188 0.750000
vt 0.867188 0.703125
vt 0.898438 0.734375
vt 0.867188 0.734375
vt 0.867188 0.703125
vt 0.898438 0.734375
vt 0.867188 0.734375
vt 0.898438 0.703125
vt 0.867188 0.734375
vt 0.867188 0.703125
vt 0.867188 0.703125
vt 0.898438 0.734375
vt 0.867188 0.734375
vt 0.851562 0.750000
vt 0.179688 0.781250
vt 0.898438 0.734375
vt 0.898438 0.734375
vt 0.898438 0.734375
vt 0.898438 0.703125
vt 0.851562 0.687500
vt 0.851562 0.687500
vt 0.851562 0.687500
vt 0.898438 0.703125
vt 0.898438 0.703125
vt 0.898438 0.734375
vt 0.898438 0.703125
vn -0.8261 -0.5528 -0.1097
vn 0.1493 -0.2947 -0.9438
vn -0.3395 -0.2364 -0.9104
vn -0.2412 0.4762 0.8456
vn -0.8261 -0.5528 0.1097
vn -0.3474 0.6856 -0.6397
vn 0.3690 -0.7283 -0.5773
vn 0.7283 0.3690 0.5773
vn 0.3690 -0.7283 0.5773
vn -0.3395 -0.2364 0.9104
vn 0.3527 -0.6962 0.6252
vn 0.1562 -0.2823 -0.9465
vn 0.9343 0.3392 -0.1097
vn 0.3527 -0.6962 -0.6252
vn 0.8871 0.4521 -0.0924
vn -0.3474 0.6856 0.6397
vn -0.8616 -0.5018 -0.0761
vn 0.8496 0.5166 -0.1059
vn 0.0299 -0.0771 0.9966
vn -0.1314 0.2950 0.9464
vn -0.8694 -0.4766 -0.1300
vn -0.0808 0.1646 -0.9830
vn 0.4891 0.8027 0.3412
vn -0.0064 -0.0376 0.9993
vn -0.9477 0.0423 0.3162
vn 0.4891 0.8027 -0.3412
vn -0.9477 0.0423 -0.3162
vn -0.4541 0.8613 0.2278
vn -0.4541 0.8613 -0.2278
vn -0.0808 0.1646 0.9830
vn 0.8496 0.5166 0.1059
vn -0.0064 -0.0376 -0.9993
vn -0.8694 -0.4766 0.1300
vn 0.1562 -0.2823 0.9465
vn 0.8871 0.4521 0.0924
vn 0.0299 -0.0771 -0.9966
vn -0.8616 -0.5018 0.0761
vn 0.9343 0.3392 0.1097
vn -0.1314 0.2950 -0.9464
vn 0.3914 0.1339 -0.9104
vn -0.2412 0.4762 -0.8456
vn 0.3914 0.1339 0.9104
vn -0.3690 0.7283 0.5773
vn 0.1493 -0.2947 0.9438
vn -0.3690 0.7283 -0.5773
vn 0.7283 0.3690 -0.5773
vn -0.7283 -0.3690 -0.5773
vn -0.7283 -0.3690 0.5773
usemtl Material.001
s 1
f 56/105/49 86/106/50 91/107/51
f 90/108/52 84/109/53 83/110/54
f 51/111/55 49/112/56 52/113/57
f 92/114/58 81/115/59 84/109/53
f 57/116/60 54/117/61 53/118/62
f 58/119/63 55/120/64 54/117/61
f 55/120/64 60/121/65 56/105/49
f 56/105/49 57/122/60 53/123/62
f 57/116/60 62/124/66 58/119/63
f 58/119/63 63/125/67 59/126/68
f 63/125/67 60/121/65 59/126/68
f 64/127/69 57/122/60 60/121/65
f 61/128/70 66/129/71 62/124/66
f 62/124/66 67/130/72 63/125/67
f 67/130/72 64/127/69 63/125/67
f 68/131/73 61/132/70 64/127/69
f 70/133/74 72/134/75 69/135/76
f 68/131/73 66/129/71 65/136/77
f 73/137/78 70/133/74 69/135/76
f 74/138/79 71/139/80 70/133/74
f 71/139/80 76/140/81 72/134/75
f 72/134/75 73/141/78 69/135/76
f 77/142/82 74/138/79 73/137/78
f 78/143/83 75/144/84 74/138/79
f 75/144/84 80/145/85 76/140/81
f 76/140/81 77/146/82 73/141/78
f 77/142/82 82/147/86 78/143/83
f 78/143/83 83/110/54 79/148/87
f 83/110/54 80/145/85 79/148/87
f 84/109/53 77/146/82 80/145/85
f 86/149/50 54/117/61 87/150/88
f 54/117/61 89/151/89 87/150/88
f 55/120/64 91/107/51 89/151/89
f 88/152/90 83/110/54 82/147/86
f 88/153/90 94/154/91 90/155/52
f 92/156/58 52/157/57 85/158/92
f 87/159/88 51/160/55 86/161/50
f 88/162/90 52/163/57 49/164/56
f 85/165/92 82/147/86 81/166/59
f 93/167/93 49/168/56 50/169/94
f 95/170/95 94/171/91 93/172/93
f 96/173/96 51/174/55 52/175/57
f 87/176/88 93/177/93 50/178/94
f 91/179/51 51/180/55 95/181/95
f 90/182/52 96/183/96 92/184/58
f 89/185/89 95/186/95 93/187/93
f 56/105/49 53/123/62 86/106/50
f 90/108/52 92/114/58 84/109/53
f 51/111/55 50/188/94 49/112/56
f 92/114/58 85/189/92 81/115/59
f 57/116/60 58/119/63 54/117/61
f 58/119/63 59/126/68 55/120/64
f 55/120/64 59/126/68 60/121/65
f 56/105/49 60/121/65 57/122/60
f 57/116/60 61/128/70 62/124/66
f 58/119/63 62/124/66 63/125/67
f 63/125/67 64/127/69 60/121/65
f 64/127/69 61/132/70 57/122/60
f 61/128/70 65/136/77 66/129/71
f 62/124/66 66/129/71 67/130/72
f 67/130/72 68/131/73 64/127/69
f 68/131/73 65/136/77 61/132/70
f 70/133/74 71/139/80 72/134/75
f 68/131/73 67/130/72 66/129/71
f 73/137/78 74/138/79 70/133/74
f 74/138/79 75/144/84 71/139/80
f 71/139/80 75/144/84 76/140/81
f 72/134/75 76/140/81 73/141/78
f 77/142/82 78/143/83 74/138/79
f 78/143/83 79/148/87 75/144/84
f 75/144/84 79/148/87 80/145/85
f 76/140/81 80/145/85 77/146/82
f 77/142/82 81/166/59 82/147/86
f 78/143/83 82/147/86 83/110/54
f 83/110/54 84/109/53 80/145/85
f 84/109/53 81/115/59 77/146/82
f 86/149/50 53/118/62 54/117/61
f 54/117/61 55/120/64 89/151/89
f 55/120/64 56/105/49 91/107/51
f 88/152/90 90/108/52 83/110/54
f 88/153/90 49/190/56 94/154/91
f 92/156/58 96/191/96 52/157/57
f 87/159/88 50/192/94 51/160/55
f 88/162/90 85/193/92 52/163/57
f 85/165/92 88/152/90 82/147/86
f 93/167/93 94/194/91 49/168/56
f 95/170/95 96/195/96 94/171/91
f 96/173/96 95/196/95 51/174/55
f 87/176/88 89/197/89 93/177/93
f 91/179/51 86/198/50 51/180/55
f 90/182/52 94/199/91 96/183/96
f 89/185/89 91/200/51 95/186/95
